<?xml version="1.0" encoding="utf-8"?>
<!-- Generator: Adobe Illustrator 17.1.0, SVG Export Plug-In . SVG Version: 6.00 Build 0)  -->
<!DOCTYPE svg PUBLIC "-//W3C//DTD SVG 1.1//EN" "http://www.w3.org/Graphics/SVG/1.1/DTD/svg11.dtd">
<svg version="1.1" id="Layer_1" xmlns="http://www.w3.org/2000/svg" xmlns:xlink="http://www.w3.org/1999/xlink" x="0px" y="0px"
	 viewBox="0 0 279.609 81.304" enable-background="new 0 0 279.609 81.304" xml:space="preserve">
<g>
	<g>
		<path fill="#06E278" d="M18.853,54.13c-0.253-1.248-0.505-2.496-0.758-3.744c0.962-0.127,1.924-0.255,2.886-0.384
			c0.637-0.107,0.703-0.255,0.561-0.984c-1.612-8.297-3.223-16.594-4.835-24.892c-0.142-0.729-0.277-0.914-0.969-0.893
			c-1.047-0.008-2.093-0.015-3.141-0.018c-0.259-1.28-0.518-2.56-0.777-3.84c5.511-0.65,11.026-1.259,16.545-1.828
			c8.414-0.879,11.378,2.988,12.141,8.134c0.734,4.943-1.785,7.856-4.541,9.029c0.008,0.051,0.016,0.102,0.025,0.153
			c5.577,0.363,8.598,3.6,9.355,8.828c1.111,7.755-3.901,10.417-11.206,10.409C29.044,54.11,23.948,54.12,18.853,54.13z
			 M27.89,33.089c3.459-0.216,6.392-1.261,5.691-5.603c-0.677-4.186-3.307-4.528-6.671-4.222c-0.894,0.081-1.787,0.162-2.68,0.245
			c0.579,3.234,1.159,6.468,1.738,9.703C26.609,33.17,27.25,33.129,27.89,33.089z M31.991,48.677
			c3.944-0.066,6.363-1.128,5.655-5.59c-0.675-4.256-3.531-5.258-6.778-5.097c-1.336,0.064-2.672,0.13-4.008,0.197
			c0.63,3.516,1.26,7.032,1.89,10.548C29.83,48.716,30.91,48.696,31.991,48.677z"/>
		<path fill="#06E278" d="M71.058,51.902c-2.727,1.665-5.761,2.806-9.253,2.804c-8.963-0.038-12.934-6.333-14.106-14.507
			c-1.365-9.473,3.385-14.367,10.051-14.78c6.418-0.388,11.089,3.195,12.063,12.731c0.069,0.66,0.221,2.586,0.289,3.687
			c-4.836,0.108-9.672,0.228-14.508,0.358c0.726,3.786,2.503,6.28,6.351,6.237c1.833-0.024,3.746-0.531,6.801-1.948
			C69.522,48.284,70.292,50.09,71.058,51.902z M62.584,36.841c-0.571-4.563-2.299-5.685-4.274-5.59
			c-2.071,0.099-3.594,1.47-3.318,5.862C57.523,37.019,60.054,36.928,62.584,36.841z"/>
		<path fill="#06E278" d="M75.009,54.042c-0.144-1.457-0.287-2.915-0.431-4.372c0.769-0.136,1.538-0.272,2.308-0.408
			c0.647-0.116,0.725-0.284,0.647-1.119c-0.917-9.789-1.834-19.578-2.751-29.367c-0.057-0.612-0.241-0.993-0.746-1.132
			c-0.932-0.301-1.865-0.6-2.799-0.896c0.032-1.505,0.066-3.011,0.101-4.518c3.423-0.228,6.846-0.44,10.271-0.635
			c1.007,12.159,2.014,24.319,3.021,36.478c0.075,0.899,0.131,1.011,0.844,1.118c0.777,0.125,1.554,0.251,2.331,0.378
			c0.116,1.486,0.233,2.973,0.349,4.459C83.771,54.033,79.39,54.037,75.009,54.042z"/>
		<path fill="#06E278" d="M90.901,54.027c-0.111-1.492-0.221-2.983-0.332-4.475c0.772-0.137,1.544-0.275,2.317-0.412
			c0.649-0.118,0.731-0.289,0.672-1.142c-0.696-10.006-1.392-20.012-2.087-30.018c-0.044-0.626-0.218-1.018-0.72-1.167
			c-0.924-0.321-1.85-0.64-2.777-0.958c0.066-1.537,0.134-3.076,0.203-4.615c3.425-0.174,6.851-0.333,10.277-0.474
			c0.734,12.393,1.468,24.787,2.202,37.18c0.054,0.917,0.108,1.031,0.819,1.141c0.774,0.13,1.548,0.259,2.322,0.39
			c0.083,1.513,0.166,3.026,0.249,4.539C99.663,54.02,95.282,54.023,90.901,54.027z"/>
		<path fill="#06E278" d="M122.686,54.008c-0.185-1.048-0.371-2.095-0.557-3.142c-0.079-0.019-0.157-0.038-0.236-0.058
			c-1.717,2.157-3.985,3.9-7.708,3.899c-5.858-0.005-7.044-4.957-7.226-8.529c-0.295-5.757,2.524-8.453,8.475-8.986
			c1.823-0.174,3.646-0.347,5.471-0.519c-0.032-1.066-0.064-2.133-0.096-3.199c-0.082-2.734-0.378-4.595-3.37-4.552
			c-2.315,0.034-3.506,0.461-3.368,3.937c-2.264-0.2-4.53-0.396-6.798-0.586c-0.393-7.779,5.541-9.025,10.016-9.101
			c7.395-0.128,10.411,2.248,10.57,10.415c0.097,4.726,0.195,9.452,0.292,14.177c0.019,0.933,0.069,1.05,0.775,1.165
			c0.754,0.154,1.508,0.308,2.261,0.463c0.025,1.538,0.051,3.076,0.076,4.614C128.403,54.006,125.545,54.007,122.686,54.008z
			 M121.05,41.501c-1.072,0.104-2.144,0.208-3.215,0.313c-2.789,0.254-3.749,1.132-3.655,3.449c0.093,2.317,1.255,3.181,2.804,3.176
			c1.596-0.006,3.157-1.115,4.211-2.109C121.147,44.72,121.099,43.111,121.05,41.501z"/>
		<path fill="#06E278" d="M145.194,54.005c0.004-1.521,0.008-3.041,0.013-4.562c1.142-0.136,2.284-0.272,3.427-0.408
			c0.657-0.058,0.753-0.291,0.761-1.169c0.085-9.979,0.17-19.957,0.255-29.936c0.007-0.877-0.089-1.112-0.774-1.173
			c-1.191-0.142-2.384-0.282-3.576-0.42c0.004-1.56,0.009-3.12,0.013-4.679c5.526,0.011,11.051,0.062,16.576,0.154
			c-0.038,1.554-0.076,3.108-0.114,4.663c-1.262,0.136-2.524,0.275-3.784,0.416c-0.737,0.108-0.788,0.225-0.805,1.1
			c-0.184,9.943-0.367,19.886-0.551,29.829c-0.017,0.934,0.028,1.051,0.729,1.169c1.202,0.158,2.402,0.316,3.602,0.474
			c-0.037,1.515-0.074,3.03-0.111,4.546C155.634,54.006,150.414,54.005,145.194,54.005z"/>
		<path fill="#06E278" d="M181.68,52.407c-2.075,1.203-5.061,2.299-7.714,2.3c-5.534,0.003-7.54-2.788-7.335-9.359
			c0.163-5.076,0.327-10.153,0.49-15.229c0.011-0.349,0.019-0.582-0.367-0.587c-1.124-0.015-2.249-0.028-3.373-0.041
			c0.047-1.727,0.094-3.455,0.14-5.182c4.284-0.526,6.072-3.046,6.841-9.361c1.556,0.035,3.112,0.074,4.668,0.115
			c-0.115,2.739-0.231,5.479-0.346,8.218c-0.017,0.405-0.024,0.579,0.364,0.587c2.282,0.048,4.564,0.102,6.846,0.161
			c-0.1,1.918-0.2,3.837-0.299,5.755c-2.393-0.051-4.786-0.096-7.179-0.138c-0.194,4.611-0.388,9.221-0.582,13.832
			c-0.143,3.416,0.459,4.749,2.995,4.761c1.315,0.007,2.697-0.39,3.854-0.901C181.018,49.03,181.351,50.719,181.68,52.407z"/>
		<path fill="#06E278" d="M200.002,54.031c-0.073-1.014-0.147-2.028-0.222-3.043c-0.077-0.019-0.153-0.038-0.23-0.057
			c-1.946,2.074-4.401,3.774-8.124,3.776c-5.858,0.007-6.509-4.928-6.304-8.485c0.327-5.736,3.433-8.333,9.432-8.664
			c1.839-0.115,3.678-0.226,5.519-0.335c0.082-1.034,0.163-2.068,0.245-3.102c0.21-2.65,0.113-4.463-2.877-4.557
			c-2.314-0.071-3.548,0.293-3.783,3.706c-2.238-0.282-4.479-0.563-6.722-0.841c0.448-7.743,6.498-8.641,10.971-8.469
			c7.391,0.286,10.149,2.724,9.439,10.529c-0.405,4.524-0.81,9.047-1.215,13.571c-0.08,0.894-0.043,1.005,0.65,1.123
			c0.738,0.155,1.475,0.31,2.211,0.464c-0.138,1.464-0.276,2.928-0.414,4.392C205.719,54.036,202.861,54.033,200.002,54.031z
			 M199.702,41.904c-1.082,0.076-2.164,0.152-3.245,0.23c-2.813,0.183-3.866,1.024-4.022,3.3c-0.155,2.276,0.913,3.137,2.462,3.148
			c1.596,0.011,3.274-1.051,4.434-1.997C199.456,45.025,199.579,43.465,199.702,41.904z"/>
		<path fill="#06E278" d="M211.232,54.042c0.143-1.458,0.287-2.915,0.43-4.373c0.794-0.123,1.589-0.245,2.384-0.366
			c0.668-0.104,0.78-0.268,0.865-1.094c1.001-9.69,2.001-19.381,3.002-29.071c0.063-0.606-0.045-1-0.518-1.195
			c-0.863-0.404-1.727-0.808-2.592-1.213c0.327-1.484,0.655-2.966,0.984-4.447c3.423,0.23,6.844,0.477,10.265,0.74
			c-1.348,11.757-2.697,23.514-4.045,35.27c-0.1,0.87-0.065,0.979,0.627,1.095c0.751,0.135,1.502,0.269,2.253,0.402
			c-0.17,1.423-0.341,2.845-0.511,4.268C219.994,54.052,215.613,54.047,211.232,54.042z"/>
		<path fill="#06E278" d="M227.076,54.062c0.176-1.415,0.352-2.829,0.527-4.244c0.813-0.117,1.626-0.233,2.439-0.349
			c0.67-0.099,0.786-0.258,0.889-1.058c0.678-5.229,1.356-10.457,2.034-15.686c0.076-0.587-0.02-0.967-0.48-1.152
			c-0.823-0.381-1.647-0.763-2.472-1.146c0.357-1.442,0.715-2.882,1.074-4.32c3.345,0.196,6.689,0.404,10.033,0.623
			c-1.031,7.261-2.063,14.522-3.094,21.783c-0.119,0.84-0.087,0.946,0.602,1.059c0.78,0.132,1.56,0.264,2.339,0.395
			c-0.203,1.372-0.405,2.743-0.608,4.115C235.932,54.074,231.504,54.068,227.076,54.062z M237.379,22.214
			c-2.777-0.195-4.161-2.068-3.775-5.122c0.386-3.053,2.228-4.572,5.045-4.313c2.867,0.265,4.265,2.05,3.838,5.037
			C242.06,20.804,240.204,22.413,237.379,22.214z"/>
		<path fill="#06E278" d="M258.908,54.114c0.008-0.89,0.015-1.78,0.022-2.673c-0.075-0.017-0.15-0.035-0.225-0.052
			c-2.114,1.81-4.705,3.314-8.428,3.317c-5.859,0.016-6.113-4.438-5.624-7.645c0.787-5.175,4.101-7.446,10.127-7.58
			c1.848-0.054,3.697-0.105,5.547-0.151c0.165-0.909,0.33-1.819,0.494-2.728c0.423-2.33,0.472-3.933-2.512-4.131
			c-2.31-0.151-3.573,0.127-4.082,3.164c-2.216-0.323-4.435-0.647-6.655-0.97c1.069-6.98,7.193-7.511,11.653-7.148
			c7.371,0.601,9.935,2.863,8.597,9.631c-0.769,3.929-1.538,7.857-2.307,11.786c-0.152,0.776-0.124,0.874,0.561,0.982
			c0.725,0.141,1.449,0.281,2.173,0.421c-0.256,1.264-0.512,2.528-0.767,3.792C264.624,54.125,261.766,54.119,258.908,54.114z
			 M259.582,43.448c-1.088,0.045-2.176,0.092-3.263,0.14c-2.828,0.107-3.949,0.838-4.288,2.865
			c-0.338,2.027,0.661,2.804,2.209,2.827c1.595,0.024,3.359-0.898,4.595-1.716C259.084,46.192,259.333,44.82,259.582,43.448z"/>
	</g>
</g>
<g>
	<path fill="#050505" d="M65.188,75.87v-0.99l1.855-0.126c0.252-0.018,0.288-0.09,0.288-0.36V64.112h-2.791
		c-0.198,0-0.252,0.018-0.288,0.198l-0.288,1.566h-1.207v-3.042h10.803v3.042h-1.206l-0.288-1.566
		c-0.036-0.18-0.09-0.198-0.288-0.198h-2.791v10.281c0,0.252,0.018,0.324,0.288,0.342l1.98,0.144v0.99H65.188z"/>
	<path fill="#050505" d="M83.333,75.87v-0.972l1.423-0.108l-1.495-3.727c-0.234-0.576-0.504-0.756-1.225-0.756h-1.98v4.087
		c0,0.288,0.018,0.324,0.288,0.36l1.188,0.144v0.972h-4.538v-0.972l1.135-0.126c0.252-0.036,0.288-0.09,0.288-0.36V64.31
		c0-0.27-0.036-0.342-0.288-0.36l-1.135-0.126v-0.99h5.51c3.241,0,4.069,1.8,4.069,3.529c0,1.927-1.044,2.989-2.503,3.511
		c0.594,0.27,0.738,0.648,1.008,1.314l1.225,3.151c0.108,0.288,0.288,0.378,0.558,0.414l1.098,0.162v0.954H83.333z M81.713,69.01
		c1.71,0,3.133-0.504,3.133-2.593c0-1.837-1.188-2.269-3.385-2.269h-1.404v4.862H81.713z"/>
	<path fill="#050505" d="M98.238,75.87v-0.972l1.477-0.162l-0.972-2.845h-5.023l-0.955,2.845l1.458,0.162v0.972h-4.141v-0.954
		l0.774-0.198c0.288-0.072,0.378-0.126,0.45-0.342l3.961-11.541h2.089l4.033,11.559c0.072,0.216,0.216,0.252,0.432,0.306
		l0.811,0.198v0.972H98.238z M96.257,64.238l-2.125,6.338h4.213L96.257,64.238z"/>
	<path fill="#050505" d="M107.975,75.87l-3.835-11.56c-0.072-0.216-0.216-0.252-0.432-0.306l-0.81-0.198l0.18-0.972h4.213v0.972
		l-1.476,0.162l3.295,10.479l3.367-10.479l-1.458-0.162l0.18-0.972h3.925v0.972l-0.756,0.198c-0.216,0.054-0.378,0.126-0.45,0.342
		l-3.709,11.523H107.975z"/>
	<path fill="#050505" d="M118.107,75.87v-0.972l1.134-0.126c0.252-0.036,0.288-0.09,0.288-0.36V64.31c0-0.27-0.036-0.342-0.288-0.36
		l-1.134-0.126v-0.99h9.039v2.971l-1.225-0.072l-0.252-1.386c-0.036-0.18-0.108-0.234-0.306-0.234h-4.177v4.537h4.808v1.296h-4.808
		v4.646h4.573c0.198,0,0.252-0.018,0.288-0.198l0.288-1.566h1.207v3.043H118.107z"/>
	<path fill="#050505" d="M131.337,75.87v-0.972l1.135-0.126c0.252-0.036,0.288-0.09,0.288-0.36V64.31c0-0.27-0.036-0.342-0.288-0.36
		l-1.135-0.126v-0.99h4.862v0.99l-1.495,0.144c-0.27,0.018-0.288,0.09-0.288,0.342v10.281h4.573c0.198,0,0.252-0.018,0.288-0.198
		l0.288-1.621h1.207v3.097H131.337z"/>
	<path fill="#050505" d="M157.277,75.87v-0.972l1.477-0.162l-0.972-2.845h-5.023l-0.955,2.845l1.458,0.162v0.972h-4.141v-0.954
		l0.774-0.198c0.288-0.072,0.378-0.126,0.45-0.342l3.961-11.541h2.088l4.033,11.559c0.072,0.216,0.216,0.252,0.433,0.306l0.81,0.198
		v0.972H157.277z M155.297,64.238l-2.125,6.338h4.213L155.297,64.238z"/>
	<path fill="#050505" d="M175.387,70.864c-0.216,0.018-0.288,0.072-0.288,0.306v4.177c-1.117,0.54-2.863,0.738-4.321,0.738
		c-4.862,0-6.662-2.899-6.662-6.824c0-3.817,2.143-6.662,6.482-6.662c1.53,0,3.079,0.36,3.997,0.972v2.863l-1.224-0.09l-0.288-1.674
		c-0.036-0.162-0.072-0.27-0.252-0.324c-0.612-0.216-1.494-0.396-2.34-0.396c-2.845,0-4.646,1.944-4.646,5.312
		c0,3.547,1.765,5.474,5.149,5.474c0.648,0,1.639-0.126,2.215-0.27c0.162-0.036,0.252-0.09,0.252-0.306v-3.187h-2.449l0.198-1.17
		h4.934v0.99L175.387,70.864z"/>
	<path fill="#050505" d="M179.433,75.87v-0.972l1.135-0.126c0.252-0.036,0.288-0.09,0.288-0.36V64.31c0-0.27-0.036-0.342-0.288-0.36
		l-1.135-0.126v-0.99h9.039v2.971l-1.225-0.072l-0.252-1.386c-0.036-0.18-0.108-0.234-0.306-0.234h-4.177v4.537h4.808v1.296h-4.808
		v4.646h4.573c0.198,0,0.252-0.018,0.288-0.198l0.288-1.566h1.207v3.043H179.433z"/>
	<path fill="#050505" d="M202.116,75.87l-6.572-10.893v9.417c0,0.288,0.018,0.324,0.288,0.36l1.207,0.144v0.972h-4.375v-0.972
		l1.134-0.126c0.252-0.036,0.288-0.09,0.288-0.36V64.292c0-0.27-0.036-0.342-0.288-0.36l-1.134-0.126v-0.99h3.529l6.41,10.821
		v-9.345c0-0.27-0.036-0.342-0.288-0.36l-1.134-0.126v-0.972h4.357v0.972l-1.207,0.144c-0.27,0.036-0.288,0.072-0.288,0.342V75.87
		H202.116z"/>
	<path fill="#050505" d="M219.504,75.131c-0.972,0.648-2.665,0.955-4.321,0.955c-4.393,0-6.158-2.773-6.158-6.734
		c0-3.907,2.143-6.752,6.464-6.752c1.584,0,3.079,0.378,3.979,0.972v2.881l-1.225-0.072l-0.306-1.71
		c-0.018-0.162-0.054-0.27-0.234-0.324c-0.63-0.216-1.44-0.396-2.287-0.396c-2.827,0-4.664,1.873-4.664,5.401
		c0,3.511,1.729,5.384,4.537,5.384c0.811,0,1.837-0.09,2.521-0.378c0.144-0.054,0.216-0.108,0.252-0.324l0.288-1.621h1.152V75.131z"
		/>
	<path fill="#050505" d="M225.243,75.87v-0.972l1.71-0.126c0.252-0.018,0.288-0.09,0.288-0.36v-3.583l-3.601-6.518
		c-0.108-0.198-0.216-0.252-0.432-0.306l-0.81-0.198l0.18-0.972h4.033v0.972l-1.351,0.162l2.863,5.383l2.773-5.383l-1.333-0.162
		l0.18-0.972h3.763v0.972l-0.756,0.198c-0.18,0.054-0.342,0.144-0.45,0.342l-3.403,6.428v3.619c0,0.288,0.018,0.324,0.288,0.36
		l1.8,0.144v0.972H225.243z"/>
</g>
</svg>
