<?xml version="1.0" encoding="utf-8"?>
<!-- Generator: Adobe Illustrator 17.1.0, SVG Export Plug-In . SVG Version: 6.00 Build 0)  -->
<!DOCTYPE svg PUBLIC "-//W3C//DTD SVG 1.1//EN" "http://www.w3.org/Graphics/SVG/1.1/DTD/svg11.dtd">
<svg version="1.1" id="Layer_1" xmlns="http://www.w3.org/2000/svg" xmlns:xlink="http://www.w3.org/1999/xlink" x="0px" y="0px"
	 viewBox="0 0 464.69 258.379" enable-background="new 0 0 464.69 258.379" xml:space="preserve">
<path fill="none" d="M16.5,131.023c78.397-104.815,364.603-97.918,435,0"/>
<text transform="matrix(0.9571 -0.2896 0.2896 0.9571 94.2959 77.021)"><tspan x="0" y="0" fill="#FFFFFF" font-family="'NimbusSan-Bol'" font-size="60">B</tspan><tspan x="38.067" y="0.143" fill="#FFFFFF" font-family="'NimbusSan-Bol'" font-size="60" rotate="5.794">e</tspan><tspan x="71.127" y="3.76" fill="#FFFFFF" font-family="'NimbusSan-Bol'" font-size="60" rotate="9.219">l</tspan><tspan x="86.585" y="6.265" fill="#FFFFFF" font-family="'NimbusSan-Bol'" font-size="60" rotate="11.265">l</tspan><tspan x="101.85" y="9.065" fill="#FFFFFF" font-family="'NimbusSan-Bol'" font-size="60" rotate="14.271">a</tspan><tspan x="133.616" y="17.342" fill="#FFFFFF" font-family="'NimbusSan-Bol'" font-size="60" rotate="17.289"> </tspan><tspan x="150.473" y="22.587" fill="#FFFFFF" font-family="'NimbusSan-Bol'" font-size="60" rotate="19.363">I</tspan><tspan x="166.594" y="28.221" fill="#FFFFFF" font-family="'NimbusSan-Bol'" font-size="60" rotate="21.558">t</tspan><tspan x="184.388" y="35.015" fill="#FFFFFF" font-family="'NimbusSan-Bol'" font-size="60" rotate="24.82">a</tspan><tspan x="214.048" y="48.977" fill="#FFFFFF" font-family="'NimbusSan-Bol'" font-size="60" rotate="28.102">l</tspan><tspan x="227.835" y="56.325" fill="#FFFFFF" font-family="'NimbusSan-Bol'" font-size="60" rotate="30.422">i</tspan><tspan x="241.253" y="63.802" fill="#FFFFFF" font-family="'NimbusSan-Bol'" font-size="60" rotate="34.422">a</tspan></text>
<text transform="matrix(1 0 0 1 150.9889 249.5175)" font-family="'Adelle-Regular'" font-size="36">TRAVELS</text>
<path d="M304,186.734c0,4.013-3.253,7.266-7.266,7.266H170.266c-4.013,0-7.266-3.253-7.266-7.266v-79.467
	c0-4.013,3.253-7.266,7.266-7.266h126.467c4.013,0,7.266,3.253,7.266,7.266V186.734z"/>
<path fill="none" stroke="#000000" stroke-width="3" stroke-miterlimit="10" d="M260.5,93.207c0,3.475-2.817,6.293-6.293,6.293
	h-38.415c-3.475,0-6.293-2.817-6.293-6.293v-0.415c0-3.475,2.817-6.293,6.293-6.293h38.415c3.475,0,6.293,2.817,6.293,6.293V93.207z
	"/>
</svg>
